<?xml version="1.0" encoding="utf-8"?>
<!-- Generator: Adobe Illustrator 18.1.1, SVG Export Plug-In . SVG Version: 6.00 Build 0)  -->
<svg version="1.1" id="animation" xmlns="http://www.w3.org/2000/svg" xmlns:xlink="http://www.w3.org/1999/xlink" x="0px" y="0px"
	 viewBox="0 90 789.655 414" style="enable-background:new 0 90 789.655 414;" xml:space="preserve">
<style type="text/css">
	.st0{fill:#FFFFFF;stroke:#D22020;stroke-width:6;stroke-miterlimit:10;}
	.st1{fill:#D22020;}

	#batmanLine {
	        stroke-dasharray: 2500;
	        stroke-dashoffset: 0;
	        -webkit-animation: dash 3s linear forwards;
	        -o-animation: dash 3s linear forwards;
	        -moz-animation: dash 3s linear forwards;
	        animation: dash 3s linear forwards;

	    }
	    @-webkit-keyframes dash {
	        0% {
	            stroke-dashoffset: 2500;
                fill:#020305;
	        }
            80% {
                fill:#020305;
            }
	        100% {
	            stroke-offset: 0;
                fill:#fff;

	        }
	    }

	    @-moz-keyframes dash {
        	0% {
        	    stroke-dashoffset: 2500;
                fill:#020305;
        	}
            80% {
                fill:#020305;
            }
        	100% {
        	    stroke-offset: 0;
                fill:#fff;

        	}
        }

		@-o-keyframes dash {
        	0% {
        	    stroke-dashoffset: 2500;
                fill:#020305;
        	}
            80% {
                fill:#020305;
            }
        	100% {
        	    stroke-offset: 0;
                fill:#fff;

        	}
        }

		@keyframes dash {
        	0% {
        	    stroke-dashoffset: 2500;
                fill:#020305;
        	}
            80% {
                fill:#020305;
            }
        	100% {
        	    stroke-offset: 0;
                fill:#fff;

        	}
        }

        #supermanFill{
            position: absolute;
            -webkit-animation: smooth 4s ease-in;
            -moz-animation: smooth 4s ease-in;
            -o-animation: smooth 4s ease-in;
            -ms-animation: smooth 4s ease-in;
            animation: smooth 4s ease-in;
        }

        @-webkit-keyframes smooth {
            0% {opacity: 0; }
            65% { opacity: 0; }
            80% { opacity: 1; }
        }

        @-moz-keyframes smooth {
            0% {opacity: 0; }
            65% { opacity: 0; }
            80% { opacity: 1; }
        }

        @-o-keyframes smooth {
            0% {opacity: 0; }
            65% { opacity: 0; }
            80% { opacity: 1; }
        }

        @keyframes smooth {
             0% {opacity: 0; }
             65% { opacity: 0; }
             80% { opacity: 1; }
        }


</style>
<path id="batmanLine" class="st0" d="M780.258,371.086c-2.315-7.942-6.691-14.891-9.576-21.245
	c-5.103-11.242-10.648-22.285-16.276-33.273c-12.552-24.518-25.688-48.749-39.167-72.767
	c-12.067-21.497-23.906-40.852-40.994-59.048c-26.027-27.718-56.982-57.515-89.697-77.3c1.079,13.733,1.936,28.485-10.264,38.009
	c-9.079,7.085-20.539,8.918-31.491,11.397c-26.427,5.982-50.13,11.282-76.949,15.248c-1.221,0.182-7.288,0.642-8.164,0.121
	c-2.118-0.091-1.918-2.245-1.918-3.664c0-8.164-0.63-21.127-0.63-29.358c-3.03,4.445-9.421,12.603-13.07,17.236
	c-0.536,1.642-1.761,2.6-3.976,2.67c-26.794,0.864-52.676-0.682-79.473,0c-0.452,0.012-0.382-0.048-0.761-0.136
	c-1.473,0.682-3,0.533-4.415-1.103c-5.745-6.652-17.233-13.115-23.303-19.421c0.494,10.361,1.13,20.506,1.136,30.873
	c0.003,4.221-6.642,6.973-9.282,5.115c-0.412,0.052-8.261-1.8-8.712-1.894c-32.433-6.748-51.779-12.021-83.203-21.13
	c-19.839-5.752-25.721-24.076-25.385-42.564C99.07,161.362,52.555,279.611,8.919,377.271c-0.57,15.709,0.367,34.664,0,50.379
	c31.061-24.621,74.242-42.236,113.764-44.445c0.836-0.045,4.342-0.033,4.939,0.27c1.467,0.615,1.988,0.33,3.645,2.13
	c5.182,5.624,9.933,11.718,14.394,17.93c3.976-9.158,11.712-17.473,19.697-22.979c13.267-9.148,32.385-6.364,47.727-6.439
	c22.891-0.115,28.336,3.582,46.339,15.782c31.994,21.682,63.718,43.964,94.633,68.309c12.715,8.879,26.897,22.145,39.582,31.061
	c24.452-16.912,51.821-39.739,75.885-57.197c24.021-17.427,43.83-34.458,69.188-49.967c3.167-1.724,4.703-2.815,5.118-3.003
	c2.021-0.821,5.073-2.288,5.491-2.4c21.464-5.176,33.358-5.742,55.052-2.336c18.712,2.936,27.5,13.961,36.87,29.039
	c16.688-19.436,46.215-19.124,68.433-11.994c25.382,8.142,52.106,18.312,71.23,36.994c-0.094-16.615,0.197-36.709-0.188-53.315
	C780.925,373.862,780.719,372.671,780.258,371.086z"/>
<g id="supermanFill">
	<path class="st1" d="M394.146,472.95c-0.849-0.279-1.416-0.461-1.82-0.59c-0.94-0.302-0.94-0.302-1.672-0.642
		c-6.494-3.02-12.52-8.018-18.347-12.852c-2.031-1.685-3.949-3.275-5.894-4.794c-12.821-10.011-26.679-21.203-43.612-35.223
		c-5.373-4.448-10.996-8.976-16.434-13.354c-19.729-15.885-40.13-32.311-56.577-51.111c-0.12-0.12-0.177-0.167-0.234-0.212
		c-4.663-4.878-9.437-9.784-14.053-14.53c-12.033-12.37-24.477-25.161-35.816-38.438l-0.306-0.342
		c-10.005-11.16-20.351-22.7-27.994-35.31c-0.609-1.007-0.425-3.459-0.196-4.156l0.155-0.116l0.07-0.386
		c0.136-0.476,1.823-3.752,3.344-5.837c5.441-7.944,12.469-14.239,19.265-20.326c1.901-1.703,3.867-3.464,5.777-5.241
		c4.46-4.148,6.211-5.711,10.806-9.722c0.195-0.184,1.027-0.813,1.635-1.272c1.1-0.832,1.601-1.216,1.787-1.403
		c0.381-0.383,2.881-2.615,3.273-2.871l0.143-0.102c10.514-9.059,20.978-16.48,34.991-24.817c-0.005,0.004-0.007,0.006-0.005,0.006
		c0.006,0,0.047-0.02,0.088-0.043c0.14-0.08,0.287-0.147,0.442-0.207c0.497-0.208,0.954-0.307,1.391-0.307
		c0.13,0,0.259,0.009,0.386,0.026l0.086,0.012l9.587-0.335c36.175-1.266,73.582-2.574,111.332-3.176l0.461-0.01
		c1.075-0.023,3.671-0.079,5.617-0.079c1.502,0,1.957,0.035,2.082,0.049l0.099,0.037l0.177,0.001
		c24.593,0.177,46.922,0.522,68.516,0.855c21.873,0.338,44.491,0.687,69.426,0.861c0.31-0.021,0.513-0.026,0.713-0.026
		c0.226,0,0.446,0.007,0.683,0.015c0.297,0.009,0.616,0.02,0.992,0.02c0.002,0,0.003,0,0.004,0c0.211,0,0.44-0.003,0.692-0.011
		c0.106,0.008,2.157,0.122,2.157,0.122c0.067,0.005,0.136,0.005,0.211,0.005c0.909,0,1.551,0,1.999-0.053l-0.022,0.024
		c0.066-0.002,1.428-0.038,1.921-0.047l0.037,0.014l0.226-0.019c0.149-0.013,0.31-0.019,0.474-0.019
		c0.743,0,1.426,0.109,1.584,0.168l0.074,0.042l0.023,0.001c0.959,0.344,1.189,0.524,1.805,1.006
		c0.313,0.246,0.703,0.55,1.282,0.955c3.512,2.455,5.986,4.368,8.606,6.395c1.823,1.411,3.71,2.869,6.091,4.626
		c1.093,0.848,1.714,1.276,2.262,1.655c0.518,0.357,0.965,0.666,1.727,1.279c7.685,5.747,15.114,11.521,22.11,17.183
		c1.19,0.964,2.397,1.934,3.613,2.913c13.243,10.652,28.252,22.725,36.756,37.691c0.18,0.317,0.311,0.662,0.412,1.086
		c0.251,0.925,0.111,1.83-0.407,2.722c-7.399,12.725-17.591,24.38-27.447,35.651c-2.173,2.485-4.33,4.953-6.438,7.409
		c-11.637,13.559-23.235,25.965-35.46,37.929c-0.96,1.056-1.98,2.137-2.658,2.855c-0.394,0.417-0.676,0.717-0.767,0.82
		c-7.438,8.463-15.394,16.539-23.645,24.003c-13.705,12.396-29.083,25.611-48.396,41.59c-19.477,16.113-34.615,28.159-49.084,39.058
		c-1.771,1.335-3.557,2.755-5.446,4.259c-6.749,5.368-14.397,11.453-22.292,13.908C396.515,472.225,395.588,472.507,394.146,472.95z
		 M381.731,442.86c3.647,2.284,8.808,4.375,12.581,5.904l0.411,0.167l0.399-0.193c11.807-5.708,25.3-13.256,37.993-21.253
		l0.183-0.114l0.119-0.181c0.985-1.493,1.172-2.832,0.555-3.979c-1.108-2.06-4.804-3.061-11.297-3.061
		c-2.412,0-4.66,0.142-5.867,0.217c-0.426,0.026-0.734,0.047-0.893,0.05c-1.475,0.03-3.112,0.044-4.842,0.044
		c-6.709,0-14.381-0.201-18.913-0.374c-0.563-0.021-1.32-0.059-2.228-0.103c-3.2-0.156-8.036-0.392-13.059-0.392
		c-16.143,0-18.731,2.454-19.183,4.593C357.02,428.136,374.748,439.676,381.731,442.86z M380.565,407.947l0.203-0.01
		c3.679-0.185,6.824-0.243,9.865-0.301c4.696-0.088,9.131-0.171,14.795-0.705c1.239-0.117,2.711-0.234,4.363-0.366
		c16.002-1.274,45.788-3.646,50.155-18.359c1.2-4.043,0.577-7.759-1.852-11.044c-8.52-11.522-40.217-17.854-91.665-18.312
		l-0.107-0.001l-0.089,0.018c-0.973,0.007-1.96,0.011-2.952,0.011c-25.867,0-51.619-2.417-76.541-7.185
		c-9.759-1.867-17.008-4.058-24.238-7.324l-0.13-0.06l-0.142-0.02c-0.296-0.042-0.583-0.062-0.855-0.062
		c-1.278,0-2.199,0.447-2.585,1.238c-0.602,0.628-0.796,1.661-0.593,3.145l0.042,0.303l0.204,0.229
		c9.35,10.456,21.46,20.623,35.994,30.218c0.103,0.063,0.182,0.114,0.259,0.172c6.761,4.451,13.714,8.526,20.719,12.153
		c1.907,0.794,4.189,1.979,5.086,2.453c16.82,8.91,31.512,10.816,48.523,13.022c1.739,0.226,3.507,0.454,5.31,0.695
		c0.108,0.015,0.259,0.025,1.123,0.025l2.852-0.009c1.479,0,1.979,0.021,2.147,0.036L380.565,407.947z M384.486,203.248
		c-17.012,0-34.146,1.576-50.715,3.1c-4.585,0.422-9.104,0.837-13.529,1.21l-0.152,0.013l-0.141,0.058
		c-6.623,2.694-18.149,10.051-21.857,17.286l-0.113,0.221l0.003,0.249c0.175,12.596,25.148,23.23,74.225,31.608l0.467,0.08
		c36.958,5.393,66.813,8.112,93.977,8.561c0.313,0.005,0.629,0.049,0.967,0.134l0.086,0.021l0.089,0.006
		c14.533,1.026,50.213,5.75,67.608,27.393c8.744,10.878,14.213,26.24,13.932,39.134l-0.052,2.402l1.741-1.656
		c7.324-6.966,14.002-14.997,20.46-22.765c2.371-2.852,4.61-5.545,6.892-8.202c2.034-2.37,4.114-4.747,6.208-7.14l2.927-3.349
		l-1.24-0.55c-0.419-0.186-0.749-0.389-1.039-0.638c-3.884-3.341-7.451-6.761-10.9-10.068c-3.467-3.323-7.051-6.76-10.973-10.134
		l-0.35-0.3c-0.801-0.684-1.241-1.061-2.666-2.543l-0.078-0.073c-32.986-27.671-79.425-48.56-130.761-58.817
		C416.771,204.967,402.023,203.248,384.486,203.248z M187.797,266.474c5.668,11.306,13.342,20.957,23.116,31.963l0.267,0.3
		l0.401,0.032c0.116,0.01,0.229,0.032,0.343,0.054l0.792,0.148l0.313-0.742c0.306-0.724,0.564-1.477,0.813-2.369
		c0.039-0.138,0.132-0.292,0.241-0.47c0.057-0.093,0.113-0.187,0.167-0.283l0.225-0.403l-0.161-0.433
		c-7.748-20.877-4.189-43.103,9.521-59.453c14.48-17.27,38.56-30.654,51.625-37.094l3.948-1.947l-4.402,0.05
		c-6.662,0.075-13.322,0.143-19.978,0.202l-0.274,0.002l-0.234,0.142c-11.347,6.853-22.67,15.307-35.635,26.606
		c-3.646,3.663-7.847,7.957-11.754,12.401c-3.574,4.021-5.979,7.109-8.297,10.656c-0.068,0.104-0.159,0.188-0.244,0.276
		l-0.229,0.243l-0.039,0.058c-0.772,1.128-1.578,2.184-2.356,3.203c-0.875,1.146-1.78,2.332-2.662,3.65
		c-0.321,0.479-0.554,0.917-0.78,1.34c-0.221,0.415-0.43,0.806-0.709,1.21l-0.033,0.048l-0.027,0.051
		c-1.319,2.483-2.585,5.259-3.985,8.733l-0.052,0.129l-0.015,0.138c-0.025,0.23-0.037,0.459-0.049,0.688l-0.03,0.524l0.149,0.308
		L187.797,266.474z M549.141,208.349c-7.312,17.377,14.612,47.336,25.737,58.334c0.934,0.923,2.146,2.227,2.751,3.122l0.058,0.085
		l0.073,0.072c0.765,0.744,1.48,1.457,2.185,2.158c1.303,1.298,2.534,2.525,3.977,3.853c1.618,1.49,2.922,2.527,4.302,3.626
		c1.097,0.874,2.23,1.776,3.557,2.942l0.758,0.667l0.66-0.765c4.937-5.726,6.902-9.065,9.966-15.6c0.53-0.991,0.005-2.328-0.582-3.5
		c-4.846-9.722-9.856-15.982-16.378-22.948c-1.253-1.338-2.462-2.693-3.671-4.047c-3.04-3.406-6.184-6.927-10.018-10.142
		c-0.374-0.313-0.944-0.818-1.561-1.361c-1.152-1.018-2.344-2.07-2.918-2.48c-2.302-1.848-4.759-3.958-7.135-6
		c-3.363-2.89-6.842-5.877-10.238-8.429l-1.025-0.77L549.141,208.349z M432.038,195.251c17.283,6.574,36.641,12.266,59.179,17.402
		c1.4,0.319,3.435,0.927,4.612,1.47l0.113,0.052l0.124,0.023c1.588,0.294,2.908,0.589,4.186,0.875
		c1.384,0.31,2.815,0.63,4.571,0.944c0.922,0.165,1.928,0.365,2.986,0.575c3.783,0.751,8.07,1.603,11.922,1.603
		c1.253,0,2.398-0.094,3.406-0.28c2.512-0.462,4.629-1.981,6.123-4.394c2.019-3.258,2.629-7.778,1.557-11.515
		c-0.427-1.487-2.632-6.399-4.485-7.574l-0.241-0.153l-0.287-0.002c-25.876-0.179-52.185-0.483-77.626-0.778l-21.395-0.246
		L432.038,195.251z"/>
	<path class="st1" d="M381.827,186.194c1.164,0,1.659,0.021,1.858,0.034l0.136,0.051l0.354,0.003
		c24.585,0.177,46.908,0.522,68.496,0.855c21.878,0.338,44.502,0.687,69.445,0.861l0.085,0.001l0.085-0.007
		c0.196-0.015,0.375-0.021,0.55-0.021c0.215,0,0.425,0.007,0.65,0.015c0.307,0.01,0.637,0.021,1.028,0.021
		c0.199,0,0.413-0.003,0.646-0.01c0.115,0.007,0.281,0.016,0.533,0.03l1.605,0.087c0.103,0.008,0.196,0.008,0.281,0.008
		c0.241,0,0.744-0.007,1.188-0.014c0.214-0.004,0.501-0.008,0.81-0.047l0.001,0.032c0.055-0.002,1.137-0.03,1.717-0.043l0.068,0.026
		l0.458-0.039c0.123-0.01,0.255-0.015,0.39-0.015c0.522,0,1,0.061,1.207,0.103l0.136,0.049c0.808,0.29,0.946,0.398,1.527,0.853
		c0.304,0.238,0.721,0.564,1.325,0.987c3.492,2.441,5.958,4.348,8.568,6.367c1.828,1.414,3.719,2.876,6.071,4.611
		c1.134,0.879,1.767,1.316,2.325,1.701c0.522,0.361,0.935,0.645,1.668,1.235l0.027,0.022l0.028,0.021
		c7.655,5.725,15.074,11.491,22.051,17.138c1.192,0.965,2.399,1.936,3.617,2.915c13.173,10.596,28.103,22.606,36.512,37.406
		c0.134,0.236,0.229,0.489,0.308,0.821l0.008,0.033l0.009,0.032c0.173,0.634,0.07,1.264-0.315,1.925
		c-7.351,12.641-17.51,24.259-27.334,35.494c-2.13,2.436-4.333,4.955-6.446,7.417c-11.616,13.535-23.196,25.921-35.401,37.866
		l-0.043,0.042l-0.04,0.044c-0.913,1.007-1.935,2.09-2.611,2.807c-0.401,0.425-0.688,0.73-0.781,0.836
		c-7.412,8.434-15.34,16.482-23.564,23.922c-13.696,12.389-29.064,25.596-48.363,41.562c-19.46,16.1-34.587,28.137-49.048,39.03
		c-1.784,1.344-3.576,2.769-5.473,4.278c-6.678,5.312-14.247,11.334-21.961,13.733c-0.525,0.163-0.552,0.171-0.626,0.193
		c-0.093,0.027-0.256,0.075-1.436,0.438c-0.685-0.224-1.165-0.378-1.52-0.492c-0.883-0.283-0.883-0.283-1.56-0.597
		c-6.378-2.965-12.353-7.921-18.132-12.715c-1.947-1.615-3.96-3.285-5.916-4.812c-12.809-10.001-26.66-21.187-43.59-35.204
		c-5.377-4.452-11.002-8.981-16.442-13.361c-19.696-15.859-40.063-32.257-56.453-50.993l-0.065-0.075l-0.072-0.068
		c-0.064-0.06-0.129-0.114-0.206-0.176c-4.624-4.844-9.382-9.736-13.984-14.466c-12.021-12.357-24.451-25.134-35.799-38.422
		l-0.284-0.316c-9.977-11.128-20.293-22.636-27.889-35.168c-0.318-0.524-0.327-2.194-0.165-3.052l0.183-0.137l0.121-0.667
		c0.253-0.658,1.794-3.622,3.187-5.531l0.018-0.024l0.017-0.025c5.356-7.822,12.028-13.798,19.093-20.125
		c1.904-1.705,3.872-3.468,5.788-5.25c4.455-4.144,6.202-5.703,10.782-9.701l0.053-0.046l0.023-0.023
		c0.196-0.169,0.981-0.763,1.505-1.159c1.288-0.974,1.668-1.27,1.892-1.494c0.325-0.326,2.588-2.349,3.095-2.727l0.11-0.061
		l0.154-0.133c10.444-8.998,20.844-16.377,34.758-24.66c0.052-0.024,0.104-0.051,0.157-0.081c0.094-0.053,0.194-0.1,0.305-0.142
		l0.03-0.012l0.03-0.013c0.343-0.144,0.671-0.217,0.975-0.217c0.084,0,0.167,0.006,0.248,0.017l0.172,0.024l0.173-0.006l9.507-0.332
		c36.168-1.265,73.567-2.574,111.305-3.176l0.482-0.01C377.338,186.249,379.903,186.194,381.827,186.194 M519.731,219.195
		c1.313,0,2.521-0.1,3.588-0.296c2.797-0.515,5.145-2.192,6.792-4.851c2.16-3.487,2.814-8.322,1.667-12.317
		c-0.312-1.085-2.585-6.668-4.912-8.143l-0.484-0.307l-0.573-0.004c-25.91-0.179-52.255-0.484-77.733-0.78l-15.66-0.181
		l-11.244-0.128l10.51,3.997c17.327,6.59,36.728,12.296,59.311,17.442c1.318,0.3,3.313,0.894,4.416,1.403l0.228,0.105l0.247,0.046
		c1.57,0.29,2.881,0.584,4.148,0.868c1.395,0.312,2.837,0.635,4.614,0.953c0.917,0.164,1.916,0.362,2.968,0.571
		C511.443,218.334,515.782,219.195,519.731,219.195 M186.918,266.951c5.72,11.396,13.433,21.097,23.248,32.151l0.535,0.602
		l0.803,0.064c0.079,0.006,0.156,0.024,0.234,0.039l1.586,0.299l0.628-1.487c0.323-0.764,0.594-1.555,0.847-2.465
		c0.017-0.042,0.088-0.157,0.139-0.242c0.064-0.105,0.127-0.21,0.187-0.318l0.449-0.805l-0.321-0.864
		c-7.622-20.536-4.126-42.391,9.349-58.463c14.363-17.13,38.307-30.434,51.301-36.84l7.897-3.893l-8.804,0.1
		c-6.661,0.075-13.32,0.143-19.975,0.202l-0.547,0.005l-0.469,0.283c-11.398,6.884-22.767,15.37-35.776,26.708l-0.054,0.047
		l-0.05,0.051c-3.602,3.622-7.815,7.928-11.736,12.389c-3.612,4.064-6.043,7.186-8.375,10.756c-0.041,0.052-0.09,0.098-0.137,0.145
		c-0.07,0.072-0.14,0.145-0.209,0.22l-0.092,0.102l-0.078,0.113c-0.757,1.107-1.519,2.104-2.325,3.16
		c-0.885,1.159-1.8,2.357-2.699,3.701c-0.348,0.521-0.605,1.001-0.831,1.424c-0.217,0.406-0.404,0.756-0.65,1.113l-0.066,0.096
		l-0.055,0.103c-1.336,2.516-2.616,5.321-4.029,8.829l-0.104,0.257l-0.03,0.276c-0.027,0.249-0.041,0.498-0.053,0.746l-0.014,0.25
		l-0.034,0.547l0.249,0.487C186.877,266.879,186.897,266.916,186.918,266.951 M548.228,337.103l3.482-3.312
		c7.368-7.007,14.066-15.061,20.542-22.851c2.368-2.848,4.604-5.537,6.879-8.188c2.054-2.393,4.201-4.846,6.277-7.219l1.96-2.241
		l1.786-2.044l-2.482-1.1c-0.332-0.147-0.576-0.296-0.792-0.482c-3.862-3.323-7.418-6.732-10.857-10.029
		c-3.477-3.333-7.072-6.78-11.016-10.173l-0.351-0.301c-0.776-0.664-1.204-1.029-2.596-2.477l-0.074-0.077l-0.082-0.069
		c-33.097-27.764-79.669-48.722-131.137-59.018c-12.872-3.549-27.684-5.275-45.281-5.275c-17.06,0-34.218,1.578-50.811,3.104
		c-4.679,0.43-9.098,0.837-13.517,1.209l-0.303,0.026l-0.282,0.115c-6.761,2.75-18.546,10.295-22.37,17.756l-0.227,0.443
		l0.007,0.497c0.186,13.332,24.735,23.989,75.052,32.58l0.519,0.088c36.975,5.395,66.87,8.117,94.081,8.567
		c0.238,0.004,0.473,0.037,0.738,0.104l0.172,0.044l0.177,0.013c9.155,0.646,22.953,2.449,36.701,7.365
		c13.408,4.794,23.568,11.408,30.198,19.657c8.606,10.707,13.988,25.813,13.712,38.485L548.228,337.103 M592.636,284.625l1.319-1.53
		c5.005-5.806,7.002-9.191,10.099-15.796c0.815-1.618-0.122-3.493-0.576-4.401l-0.025-0.05c-4.878-9.785-9.937-16.107-16.519-23.137
		c-1.242-1.326-2.467-2.699-3.653-4.027c-3.064-3.433-6.233-6.983-10.124-10.245c-0.367-0.308-0.929-0.804-1.534-1.339
		c-1.358-1.199-2.372-2.088-2.955-2.513c-2.321-1.863-4.758-3.956-7.114-5.981c-3.376-2.9-6.866-5.899-10.29-8.47l-2.05-1.539
		l-0.994,2.363c-4.245,10.088,1.054,23.471,6.247,32.922c5.84,10.628,14.107,20.974,19.709,26.512
		c1.148,1.135,2.154,2.273,2.625,2.97l0.115,0.17l0.147,0.143c0.762,0.741,1.475,1.451,2.176,2.15
		c1.31,1.305,2.548,2.538,4.005,3.879c1.644,1.514,3.023,2.611,4.355,3.672c1.088,0.866,2.212,1.762,3.52,2.911L592.636,284.625
		 M257.964,344.89c-0.735,0.855-0.989,2.148-0.755,3.855l0.083,0.606l0.408,0.456c9.409,10.523,21.585,20.746,36.223,30.408
		c0.06,0.038,0.12,0.074,0.176,0.117l0.05,0.038l0.053,0.035c6.742,4.435,13.725,8.529,20.755,12.168l0.076,0.039l0.079,0.033
		c1.854,0.768,4.237,2.013,4.923,2.376c16.981,8.995,31.756,10.911,48.864,13.13c1.737,0.225,3.504,0.454,5.304,0.695
		c0.181,0.024,0.395,0.034,1.253,0.034c0.364,0,0.799-0.002,1.262-0.004c0.519-0.002,1.073-0.005,1.598-0.005
		c1.196,0,1.711,0.014,1.933,0.025l0.164,0.06l0.407-0.02c3.663-0.183,6.8-0.242,9.833-0.299c4.715-0.088,9.169-0.172,14.871-0.71
		c1.235-0.117,2.704-0.233,4.352-0.365c16.24-1.294,46.469-3.702,51.031-19.071c1.294-4.361,0.62-8.372-2.006-11.923
		c-8.838-11.954-39.946-18.251-92.46-18.718l-0.073-0.001l-0.073,0.005c-0.043,0.003-0.085,0.007-0.126,0.012
		c-0.963,0.007-1.923,0.01-2.888,0.01c-25.805,0-51.493-2.411-76.35-7.166c-9.675-1.851-16.857-4.02-24.014-7.254l-0.261-0.118
		l-0.283-0.04c-0.339-0.048-0.674-0.072-0.995-0.072C259.777,343.227,258.549,343.837,257.964,344.89 M381.257,443.743
		c3.721,2.319,8.892,4.414,12.679,5.949l0.823,0.333l0.799-0.386c11.836-5.721,25.363-13.288,38.091-21.307l0.365-0.23l0.238-0.36
		c1.499-2.272,1.154-3.975,0.6-5.004c-1.335-2.48-5.091-3.586-12.178-3.586c-2.441,0-4.708,0.142-5.926,0.218
		c-0.407,0.025-0.702,0.045-0.853,0.048c-1.405,0.029-3.027,0.044-4.823,0.044c-6.689,0-14.347-0.201-18.873-0.373
		c-0.56-0.021-1.31-0.058-2.212-0.102c-3.211-0.157-8.063-0.393-13.114-0.393c-13.334,0-19.364,1.611-20.16,5.387l-0.008,0.039
		l-0.007,0.039c-0.173,1.017-0.532,3.132,9.11,10.239C371.075,438.178,376.978,441.787,381.257,443.743 M381.827,184.194
		c-2.361,0-5.679,0.082-6.097,0.088c-40.992,0.654-80.658,2.109-120.85,3.509c-0.171-0.024-0.346-0.036-0.523-0.036
		c-0.561,0-1.148,0.121-1.748,0.372c-0.204,0.078-0.395,0.167-0.577,0.27c-0.035,0.02-0.069,0.028-0.104,0.049
		c-12.894,7.671-23.719,15.084-35.133,24.918c-0.389,0.217-3.107,2.66-3.471,3.025c-0.314,0.315-3.058,2.312-3.372,2.628
		c-4.602,4.017-6.385,5.609-10.829,9.743c-8.779,8.166-18.157,15.47-25.169,25.709c-1.565,2.144-3.421,5.702-3.52,6.248
		c-0.397,0.297-0.837,3.81,0.099,5.355c7.765,12.812,18.281,24.503,28.394,35.783c15.722,18.409,33.18,35.493,49.878,52.99
		c0.075,0.079,0.156,0.128,0.232,0.2c21.123,24.147,48.58,44.256,73.125,64.578c14.4,11.922,28.899,23.734,43.634,35.24
		c7.632,5.959,15.58,13.648,24.436,17.764c1.146,0.533,0.645,0.298,3.903,1.374c2.983-0.918,1.383-0.418,2.676-0.82
		c10.228-3.181,19.679-12.023,28.043-18.323c16.712-12.589,33-25.75,49.119-39.086c16.398-13.566,32.645-27.342,48.43-41.62
		c8.284-7.493,16.174-15.493,23.725-24.085c0.245-0.278,1.934-2.033,3.372-3.62c12.457-12.191,23.978-24.544,35.52-37.992
		c11.701-13.634,24.908-27.589,33.991-43.209c0.71-1.22,0.802-2.407,0.515-3.457c-0.105-0.443-0.255-0.891-0.515-1.348
		c-9.367-16.486-26.126-29.165-40.609-40.887c-7.254-5.871-14.634-11.593-22.112-17.185c-1.588-1.277-1.852-1.277-4.022-2.959
		c-5.841-4.311-8.772-6.88-14.718-11.036c-1.769-1.237-1.697-1.499-3.322-2.083c-0.248-0.14-1.172-0.27-2.018-0.27
		c-0.194,0-0.384,0.007-0.56,0.022c-0.001,0-0.007,0-0.018,0c-0.208,0-2.12,0.05-2.114,0.05c0,0,0,0,0,0c0.011,0,0.017,0,0.018,0
		c0.025,0-1.486,0.028-1.958,0.028c-0.082,0-0.133-0.001-0.138-0.003c-1.983-0.109-2.202-0.118-2.235-0.125
		c-0.253,0.009-0.482,0.012-0.691,0.012c-0.682,0-1.168-0.035-1.678-0.035c-0.225,0-0.453,0.007-0.705,0.027
		c-49.528-0.345-88.413-1.36-137.941-1.716C384.014,184.216,383.048,184.194,381.827,184.194L381.827,184.194z M519.731,217.195
		c-4.843,0-10.608-1.424-14.732-2.161c-3.344-0.598-5.413-1.201-8.751-1.818c-1.289-0.595-3.428-1.222-4.81-1.537
		c-19.91-4.537-39.723-10.012-59.044-17.361c31.134,0.355,62.268,0.745,93.403,0.96c1.491,0.945,3.625,5.489,4.06,7.005
		c1.599,5.571-0.823,13.531-6.899,14.649C521.955,217.116,520.868,217.195,519.731,217.195L519.731,217.195z M212.108,297.841
		c-0.149-0.028-0.296-0.055-0.447-0.067c-8.738-9.84-17.057-19.939-22.997-31.801c-0.008-0.016-0.019-0.027-0.027-0.043
		c0.019-0.302,0.027-0.603,0.059-0.905c1.214-3.014,2.482-5.891,3.941-8.638c0.605-0.876,0.894-1.659,1.498-2.562
		c1.65-2.466,3.36-4.429,5.013-6.845c0.179-0.197,0.377-0.37,0.524-0.594c2.397-3.668,4.876-6.792,8.211-10.543
		c3.719-4.231,7.661-8.287,11.66-12.308c11.158-9.724,22.85-18.867,35.496-26.504c6.657-0.059,13.317-0.127,19.98-0.202
		c-18.537,9.139-39.342,22.314-51.949,37.349c-14.698,17.529-17.13,40.4-9.692,60.444c-0.177,0.317-0.395,0.601-0.498,0.972
		C212.638,296.454,212.397,297.157,212.108,297.841L212.108,297.841z M550.332,332.342c0.312-14.3-6.123-29.793-14.152-39.782
		c-15.048-18.722-45.069-26.122-68.318-27.763c-0.371-0.094-0.764-0.158-1.195-0.165c-31.376-0.518-62.77-4.015-93.825-8.546
		c-14.499-2.477-73.605-12.375-73.86-30.717c3.66-7.142,15.213-14.322,21.344-16.816c20.256-1.707,42.447-4.306,64.16-4.307
		c15.472,0,30.7,1.319,44.819,5.222c45.738,9.139,94.274,28.37,130.315,58.603c1.655,1.721,2.036,2.006,3.084,2.908
		c7.806,6.716,14.067,13.486,21.873,20.202c0.414,0.356,0.848,0.599,1.286,0.794c-2.78,3.182-5.555,6.335-8.248,9.473
		C568.984,311.506,560.239,322.922,550.332,332.342L550.332,332.342z M592.44,281.789c-2.97-2.612-4.934-3.876-7.841-6.553
		c-2.218-2.041-3.985-3.895-6.141-5.992c-0.648-0.958-1.875-2.283-2.876-3.273c-10.401-10.283-32.725-40.113-25.519-57.236
		c5.79,4.348,11.746,9.915,17.393,14.443c0.838,0.597,3.381,2.925,4.416,3.793c5.274,4.422,9.16,9.362,13.602,14.106
		c6.94,7.412,11.671,13.6,16.189,22.662c0.257,0.516,0.992,1.934,0.595,2.677C599.282,272.765,597.398,276.038,592.44,281.789
		L592.44,281.789z M375.455,406.88c-0.519,0-0.892-0.004-0.987-0.017c-19.638-2.622-35.151-3.891-53.497-13.61
		c-1.404-0.744-3.471-1.785-5.094-2.457c-7.02-3.635-13.936-7.696-20.575-12.063c-0.1-0.076-0.205-0.143-0.311-0.21
		c-13.958-9.213-26.171-19.282-35.799-30.05c-0.117-0.855-0.15-1.978,0.445-2.424c0.158-0.553,0.851-0.823,1.742-0.823
		c0.227,0,0.468,0.018,0.715,0.052c7.574,3.422,15.123,5.609,24.462,7.395c24.909,4.765,51.073,7.202,76.726,7.202
		c1.016,0,2.026-0.004,3.04-0.011c0.036,0,0.066-0.013,0.102-0.015c22.049,0.196,100.429,1.586,92.566,28.072
		c-4.631,15.599-41.1,16.83-53.654,18.014c-9.274,0.875-15.221,0.532-24.617,1.002c-0.149-0.055-1.202-0.067-2.404-0.067
		C377.321,406.871,376.226,406.88,375.455,406.88L375.455,406.88z M394.687,447.838c-3.714-1.505-8.911-3.613-12.481-5.86
		c-8.734-3.957-23.982-14.958-23.536-17.586c0.652-3.089,9.582-3.8,18.203-3.8c6.461,0,12.748,0.399,15.249,0.494
		c5.141,0.196,12.644,0.375,18.949,0.375c1.738,0,3.383-0.014,4.865-0.044c0.628-0.013,3.502-0.266,6.738-0.266
		c5.889,0,12.977,0.838,9.908,5.489C420.76,434.088,407.294,441.744,394.687,447.838L394.687,447.838z"/>
</g>
</svg>
